<?xml version="1.0" encoding="UTF-8" standalone="no"?>
<!-- Created with Inkscape (http://www.inkscape.org/) -->

<svg
   width="500mm"
   height="500mm"
   viewBox="0 0 500 500.00001"
   version="1.1"
   id="svg5"
   xml:space="preserve"
   xmlns="http://www.w3.org/2000/svg"
   xmlns:svg="http://www.w3.org/2000/svg"><defs
     id="defs2" /><g
     id="layer1"
     transform="translate(-170.50274,-88.944364)"><g
       id="g15841"
       transform="matrix(0.7905233,0,0,0.7905233,58.715086,128.65657)"><circle
         style="opacity:0.99;fill:#9fc0bd;fill-opacity:1;stroke-width:0.0589308"
         id="path356-2-1"
         cx="496.70126"
         cy="282.98138"
         r="49.506695" /><circle
         style="opacity:0.99;fill:#9fc0bd;fill-opacity:1;stroke-width:0.0589308"
         id="path356-2-1-3"
         cx="220.00943"
         cy="172.09576"
         r="49.506695" /><circle
         style="opacity:0.99;fill:#9fc0bd;fill-opacity:1;stroke-width:0.0589308"
         id="path356-2"
         cx="275.01675"
         cy="393.57068"
         r="49.506695" /><path
         style="opacity:0.99;fill:#9fc0bd;fill-opacity:1;stroke-width:0.0616197"
         d="m 239.17276,230.71875 c 18.96138,-6.54345 32.40973,-19.81552 39.26587,-39.13277 v 0 l 60.2964,60.2964 -78.53174,0.0665 z"
         id="path3288" /><path
         style="opacity:0.99;fill:#9fc0bd;fill-opacity:1;stroke-width:0.0616197"
         d="M 278.304,152.79963 C 272.10626,133.9633 258.49362,120.3225 239.09291,113.36906 l 24.5578,-24.358146 136.89813,-0.06655 88.56972,132.751696 c -22.50112,3.35675 -36.31105,14.97866 -46.05135,30.47072 l -72.01904,-107.7465 -84.54578,0.10299 z"
         id="path3386" /><path
         style="opacity:0.99;fill:#9fc0bd;fill-opacity:1;stroke-width:0.0616197"
         d="m 330.32578,366.11013 c 10.87862,23.47225 6.72847,39.95929 0,55.24797 l 67.01287,0.0941 79.99543,-79.82484 c -12.12514,-4.5744 -23.8869,-11.17947 -33.90055,-27.5534 h -16.84734 l -52.06556,52.06557 z"
         id="path3388" /><path
         style="opacity:0.99;fill:#ce8f11;fill-opacity:1;stroke-width:0.0616197"
         d="m 197.47654,260.69662 v 44.37722 h 241.71921 c -5.49694,-15.00768 -5.54632,-29.76774 0,-44.27344 z"
         id="path3390" /><path
         style="opacity:0.99;fill:#ce8f11;fill-opacity:1;stroke-width:0.0616197"
         d="m 554.49765,260.66729 c 5.36188,14.23988 5.43037,29.09526 0,44.59005 3.23973,0 31.20172,-1.43836 30.94684,6.78833 v 60.76228 c 0,0 106.30465,-52.17592 153.86872,-83.39044 2.3369,-1.53362 5.46884,-3.53844 5.49586,-6.3335 0.0274,-2.8364 -3.08806,-4.96586 -5.45184,-6.53381 C 690.4803,244.12889 585.53599,193.16661 585.53599,193.16661 v 60.94168 c 0,7.61523 -26.78451,6.559 -31.03834,6.559 z"
         id="path3441" /></g></g></svg>
